<?xml version="1.0" encoding="utf-8"?>
<!-- Generator: Adobe Illustrator 16.0.0, SVG Export Plug-In . SVG Version: 6.00 Build 0)  -->
<!DOCTYPE svg PUBLIC "-//W3C//DTD SVG 1.1//EN" "http://www.w3.org/Graphics/SVG/1.1/DTD/svg11.dtd">
<svg version="1.1" id="Layer_1" xmlns="http://www.w3.org/2000/svg" xmlns:xlink="http://www.w3.org/1999/xlink" x="0px" y="0px"
	 width="800px" height="1280px" viewBox="0 0 800 1280" enable-background="new 0 0 800 1280" xml:space="preserve">
<path fill="none" stroke="#00FFFF" stroke-width="21" stroke-miterlimit="10" d="M8.817,1045.715
	c32.04-0.531,63.989-5.425,94.691-14.613c29.708-8.892,58.198-21.778,84.51-38.185c25.987-16.204,49.83-35.82,70.754-58.182
	c20.959-22.398,38.977-47.538,53.421-74.602c14.69-27.522,25.66-57.01,32.514-87.446c7.112-31.585,9.782-64.146,8.039-96.472
	c-1.716-31.808-7.763-63.361-18.004-93.525c-9.942-29.285-23.81-57.217-41.093-82.862c-17.105-25.382-37.537-48.507-60.606-68.622
	c-23.151-20.186-48.946-37.324-76.544-50.808c-28.138-13.748-58.121-23.67-88.906-29.417c-19.38-3.618-39.064-5.586-58.775-5.913"/>
<path fill="none" stroke="#00FFFF" stroke-width="21" stroke-miterlimit="10" d="M12.795,956.096
	c41.159-10.115,79.544-30.552,111.05-58.884c31.181-28.042,55.39-63.606,69.912-102.956c15.372-41.652,19.696-87.162,12.662-130.99
	c-6.81-42.429-24.353-82.862-50.623-116.864c-25.498-33.002-58.932-59.708-96.818-77.16c-14.734-6.788-30.111-12.177-45.858-16.077"
	/>
</svg>
